<svg width="898" height="561" viewBox="0 0 898 561" fill="none" xmlns="http://www.w3.org/2000/svg">
<g clip-path="url(#clip0_1039_16876)">
<ellipse cx="554.667" cy="278.913" rx="274.056" ry="138.523" stroke="black"/>
<ellipse cx="554.667" cy="278.912" rx="261.101" ry="129.708" stroke="black"/>
<path d="M387.71 378.664C351.927 360.414 331.933 329.637 331.933 300.496C331.933 234.311 432.77 180.658 557.158 180.658C681.546 180.658 782.382 234.311 782.382 300.496C782.382 325.647 769.801 350.947 741.398 369.633" stroke="black"/>
<path d="M828.537 274.02C829.471 281.152 828.723 288.098 828.723 300.834C828.723 381.741 706.025 447.329 554.667 447.329C403.31 447.329 280.611 381.741 280.611 300.834C280.611 290.235 280.237 282.21 280.782 273.849" stroke="black"/>
<path d="M828.723 301.708C829.657 308.84 828.723 330.454 828.723 343.19C828.723 424.098 706.024 489.686 554.667 489.686C403.31 489.686 280.611 424.098 280.611 343.19C280.611 332.592 280.066 308.451 280.611 300.089" stroke="black"/>
<path d="M301.038 399.498L-478.597 830.534L-295.172 908.172L477.903 484.483M-266.805 909.585L501.073 486.984M234.764 473.154L341.396 517.999M293.153 438.143L398.288 484.483M119.671 540.255L226.304 585.101M178.061 505.245L283.196 551.585M-1.32851 606.255L105.304 651.101M57.0605 571.245L162.196 617.585" stroke="black"/>
<path d="M829.469 287.924L1299.64 1.04976M1299.64 1.04976L1129.2 -62.1327L993.295 13.7049L717.856 167.296M1299.64 1.04976L1299.64 17.9471L828.552 306.338M886.609 211.643L776.487 167.296M934.944 183.894L824.822 139.547M978.293 157.485L868.172 113.138M1019.73 134.845L909.61 90.4976M1058.03 109.6L953.055 65.2523M1107.36 86.9595L997.234 42.6122M1143.08 62.2943L1038.1 17.9471M1186.52 39.6542L1076.4 -4.69306" stroke="black"/>
<path d="M538.894 277.666C538.894 281.87 545.995 285.278 554.753 285.278C555.143 285.278 555.53 285.271 555.913 285.258L598.818 384.356C599.24 385.332 600.359 385.799 601.35 385.413C602.39 385.008 602.888 383.823 602.451 382.797L560.707 284.724C566.515 283.594 570.612 280.859 570.612 277.666C570.612 274.327 566.135 271.491 559.906 270.464L556.069 261.098C556.069 261.098 555.041 257.735 547.442 258.077C539.843 258.42 540.995 261.845 540.995 261.845L545.01 271.659C541.288 273.052 538.894 275.225 538.894 277.666Z" stroke="#303030"/>
<path d="M539.237 289.606C540.215 287.321 543.215 285.391 547.299 284.264M561.742 298.709C559.847 299.066 557.784 299.262 555.625 299.262C552.761 299.262 550.066 298.917 547.709 298.308M566.399 297.376C570.042 295.903 572.356 293.697 572.356 291.231C572.356 288.128 568.689 285.436 563.32 284.099" stroke="#303030"/>
<path d="M558.778 292.116H553.67L462.235 384.298L453.266 379.814L539.13 295.394M549.559 285.14L539.13 295.394M539.13 295.394L421.625 306.69L419.134 299.964L539.298 289.609L539.407 289.219" stroke="#303030"/>
<path d="M730.809 254.193C730.809 255.938 728.928 257.554 726.326 257.554C723.724 257.554 721.843 255.938 721.843 254.193C721.843 252.447 723.724 250.831 726.326 250.831C728.928 250.831 730.809 252.447 730.809 254.193Z" stroke="#303030"/>
<path d="M667.528 217.995C667.528 219.741 665.647 221.357 663.045 221.357C660.443 221.357 658.562 219.741 658.562 217.995C658.562 216.25 660.443 214.634 663.045 214.634C665.647 214.634 667.528 216.25 667.528 217.995Z" stroke="#303030"/>
<path d="M578.086 203.047C578.086 204.793 576.205 206.409 573.603 206.409C571.001 206.409 569.12 204.793 569.12 203.047C569.12 201.302 571.001 199.686 573.603 199.686C576.205 199.686 578.086 201.302 578.086 203.047Z" stroke="#303030"/>
<path d="M484.409 210.771C484.409 212.516 482.528 214.133 479.926 214.133C477.324 214.133 475.443 212.516 475.443 210.771C475.443 209.025 477.324 207.409 479.926 207.409C482.528 207.409 484.409 209.025 484.409 210.771Z" stroke="#303030"/>
<path d="M403.935 240.169C403.935 241.915 402.054 243.531 399.452 243.531C396.85 243.531 394.969 241.915 394.969 240.169C394.969 238.424 396.85 236.808 399.452 236.808C402.054 236.808 403.935 238.424 403.935 240.169Z" stroke="#303030"/>
<path d="M369.304 287.956C369.304 289.702 367.423 291.318 364.821 291.318C362.22 291.318 360.339 289.702 360.339 287.956C360.339 286.211 362.22 284.595 364.821 284.595C367.423 284.595 369.304 286.211 369.304 287.956Z" stroke="#303030"/>
<path d="M384.003 341.274C384.003 343.019 382.122 344.636 379.52 344.636C376.919 344.636 375.038 343.019 375.038 341.274C375.038 339.528 376.919 337.912 379.52 337.912C382.122 337.912 384.003 339.528 384.003 341.274Z" stroke="#303030"/>
<path d="M443.798 382.244C443.798 383.989 441.917 385.605 439.316 385.605C436.714 385.605 434.833 383.989 434.833 382.244C434.833 380.498 436.714 378.882 439.316 378.882C441.917 378.882 443.798 380.498 443.798 382.244Z" stroke="#303030"/>
<path d="M548.361 398.749C548.361 400.495 546.48 402.111 543.878 402.111C541.276 402.111 539.395 400.495 539.395 398.749C539.395 397.004 541.276 395.388 543.878 395.388C546.48 395.388 548.361 397.004 548.361 398.749Z" stroke="#303030"/>
<path d="M649.512 391.024C649.512 392.769 647.631 394.386 645.029 394.386C642.428 394.386 640.547 392.769 640.547 391.024C640.547 389.278 642.428 387.662 645.029 387.662C647.631 387.662 649.512 389.278 649.512 391.024Z" stroke="#303030"/>
<path d="M730.809 353.403C730.809 355.148 728.928 356.764 726.326 356.764C723.724 356.764 721.843 355.148 721.843 353.403C721.843 351.657 723.724 350.041 726.326 350.041C728.928 350.041 730.809 351.657 730.809 353.403Z" stroke="#303030"/>
<path d="M756.97 303.949C756.97 305.694 755.089 307.31 752.487 307.31C749.885 307.31 748.004 305.694 748.004 303.949C748.004 302.203 749.885 300.587 752.487 300.587C755.089 300.587 756.97 302.203 756.97 303.949Z" stroke="#303030"/>
</g>
<defs>
<clipPath id="clip0_1039_16876">
<rect width="898" height="561" fill="white"/>
</clipPath>
</defs>
</svg>
