<svg width="323" height="133" viewBox="0 0 323 133" fill="none" xmlns="http://www.w3.org/2000/svg">
<path d="M198.467 77.5928L322.001 91.9583M198.467 77.5928L185.691 108.707M198.467 77.5928L100.485 1M322.001 91.9583L309.225 123.072L185.691 108.707M322.001 91.9583L223.91 15.6292L100.485 1M185.691 108.707L87.709 32.1137L100.485 1" stroke="black"/>
<path d="M115.658 99.5442V131.798M115.658 99.5442L158.89 87.383M115.658 99.5442L58.329 83.4173M115.658 131.798L1 99.5442V67.2904M115.658 131.798L194.603 109.87M1 67.2904L98.1147 40.2031M1 67.2904L58.329 83.4173M58.329 83.4173L77.4386 78.4508M115.658 54.7336V59.746M144.479 76.6627L128.189 72.059" stroke="black"/>
<ellipse cx="102.816" cy="70.6821" rx="25.3553" ry="12.8159" stroke="black"/>
<path d="M98.1152 66.6377L101.875 71.6501L113.152 73.5297" stroke="black"/>
<path d="M128.172 72.7914C128.259 73.4512 128.172 75.451 128.172 76.6293C128.172 84.1147 116.82 90.1828 102.817 90.1828C88.8138 90.1828 77.4619 84.1147 77.4619 76.6293C77.4619 75.6487 77.4115 72.424 77.4619 71.6504" stroke="black"/>
</svg>
