<svg width="321" height="148" viewBox="0 0 321 148" fill="none" xmlns="http://www.w3.org/2000/svg">
<path d="M79.8784 61.0545C79.7017 62.4249 79.0475 63.4771 77.9158 64.2111C76.7841 64.9451 75.302 65.3092 73.4696 65.3034L72.9993 68.951L71.7474 68.7896L72.2097 65.2038C71.2644 65.061 70.2435 64.8141 69.1469 64.4632C68.062 64.1033 67.2097 63.7263 66.5901 63.3322L66.7954 61.7402C67.5204 62.2108 68.402 62.644 69.4404 63.0397C70.4891 63.4368 71.472 63.6945 72.3891 63.8128L73.4015 55.9612C71.9658 55.3151 70.9166 54.7189 70.2538 54.1726C69.591 53.6262 69.1346 53.0226 68.8846 52.3619C68.6346 51.7011 68.5667 50.9277 68.6809 50.0415C68.8457 48.7639 69.4681 47.7547 70.5483 47.014C71.6401 46.2644 73.0236 45.8929 74.6988 45.8994L75.0815 42.9318L76.3334 43.0932L75.9547 46.0299C77.9727 46.3843 79.7332 46.9885 81.2363 47.8422L80.5469 49.1675C79.1764 48.3413 77.5859 47.7591 75.7754 47.4209L74.8068 54.9325C76.9139 55.8955 78.3278 56.8321 79.0484 57.742C79.7691 58.652 80.0458 59.7562 79.8784 61.0545ZM78.1862 60.7734C78.2991 59.8976 78.0675 59.1345 77.4915 58.4841C76.9167 57.8233 75.9501 57.1959 74.5916 56.6017L73.653 63.8815C74.9273 63.9096 75.9663 63.6507 76.77 63.1049C77.5839 62.5604 78.056 61.7832 78.1862 60.7734ZM70.3656 50.2588C70.2514 51.1449 70.4514 51.9092 70.9656 52.5516C71.4799 53.1941 72.3609 53.7948 73.6087 54.3537L74.5115 47.3522C73.2641 47.359 72.2862 47.631 71.578 48.1681C70.88 48.7067 70.4759 49.4035 70.3656 50.2588Z" fill="#303030"/>
<path d="M100.532 70.6312L99.0169 70.4359L101.139 53.9753C101.332 52.4813 101.594 50.9385 101.925 49.347C101.75 49.4816 101.571 49.6105 101.388 49.7335C101.204 49.8565 99.4509 50.9031 96.1276 52.8734L95.3881 51.6625L102.116 47.8632L103.445 48.0346L100.532 70.6312Z" fill="#303030"/>
<path d="M125.845 62.3461C125.333 66.3131 124.347 69.1714 122.885 70.9208C121.434 72.6716 119.482 73.3889 117.03 73.0727C114.67 72.7684 113.003 71.5584 112.03 69.4425C111.057 67.3164 110.819 64.3265 111.316 60.4728C111.824 56.5367 112.792 53.6971 114.222 51.9539C115.661 50.2121 117.597 49.498 120.029 49.8115C122.409 50.1184 124.096 51.3363 125.089 53.4651C126.083 55.5836 126.335 58.544 125.845 62.3461ZM112.986 60.688C112.534 64.1914 112.658 66.8419 113.359 68.6397C114.06 70.4272 115.344 71.4412 117.209 71.6817C119.156 71.9328 120.685 71.2499 121.794 69.6331C122.914 68.0176 123.692 65.5149 124.129 62.1249C124.56 58.7864 124.438 56.1939 123.765 54.3472C123.102 52.5019 121.797 51.4537 119.849 51.2026C117.902 50.9515 116.379 51.635 115.28 53.2531C114.181 54.8712 113.416 57.3496 112.986 60.688Z" fill="#303030"/>
<path d="M143.928 64.6778C143.417 68.6448 142.43 71.5031 140.968 73.2525C139.517 75.0033 137.565 75.7206 135.113 75.4044C132.753 75.1001 131.087 73.8901 130.113 71.7742C129.141 69.6481 128.903 66.6582 129.4 62.8045C129.907 58.8684 130.876 56.0288 132.305 54.2856C133.745 52.5438 135.681 51.8297 138.112 52.1432C140.492 52.4501 142.179 53.668 143.172 55.7968C144.166 57.9153 144.418 60.8756 143.928 64.6778ZM131.069 63.0197C130.617 66.5231 130.742 69.1736 131.442 70.9714C132.144 72.7589 133.427 73.7729 135.292 74.0133C137.24 74.2644 138.768 73.5816 139.878 71.9648C140.997 70.3493 141.776 67.8466 142.213 64.4566C142.643 61.1181 142.522 58.5255 141.848 56.6789C141.186 54.8336 139.88 53.7854 137.933 53.5343C135.985 53.2832 134.462 53.9667 133.363 55.5848C132.264 57.2029 131.499 59.6812 131.069 63.0197Z" fill="#303030"/>
<path d="M170.234 68.0697C169.723 72.0367 168.736 74.8949 167.274 76.6444C165.823 78.3952 163.871 79.1125 161.419 78.7963C159.059 78.492 157.393 77.282 156.419 75.1661C155.447 73.04 155.209 70.0501 155.706 66.1964C156.213 62.2603 157.182 59.4207 158.611 57.6775C160.051 55.9357 161.986 55.2216 164.418 55.5351C166.798 55.842 168.485 57.0599 169.478 59.1887C170.472 61.3072 170.724 64.2675 170.234 68.0697ZM157.375 66.4116C156.923 69.915 157.048 72.5655 157.748 74.3633C158.45 76.1508 159.733 77.1648 161.598 77.4052C163.546 77.6563 165.074 76.9735 166.183 75.3567C167.303 73.7412 168.081 71.2385 168.519 67.8485C168.949 64.51 168.828 61.9174 168.154 60.0708C167.491 58.2255 166.186 57.1773 164.239 56.9262C162.291 56.6751 160.768 57.3586 159.669 58.9767C158.57 60.5948 157.805 63.0731 157.375 66.4116Z" fill="#303030"/>
<path d="M188.318 70.4014C187.806 74.3684 186.82 77.2266 185.358 78.9761C183.907 80.7269 181.955 81.4442 179.502 81.128C177.143 80.8237 175.476 79.6137 174.502 77.4978C173.53 75.3716 173.292 72.3817 173.789 68.5281C174.297 64.592 175.265 61.7523 176.694 60.0092C178.134 58.2674 180.07 57.5533 182.502 57.8668C184.882 58.1737 186.568 59.3916 187.561 61.5204C188.556 63.6389 188.808 66.5992 188.318 70.4014ZM175.458 68.7433C175.007 72.2466 175.131 74.8972 175.831 76.695C176.533 78.4825 177.817 79.4964 179.682 79.7369C181.629 79.988 183.158 79.3052 184.267 77.6884C185.387 76.0729 186.165 73.5702 186.602 70.1802C187.032 66.8417 186.911 64.2491 186.238 62.4025C185.575 60.5572 184.27 59.5089 182.322 59.2578C180.375 59.0067 178.852 59.6902 177.753 61.3084C176.654 62.9265 175.889 65.4048 175.458 68.7433Z" fill="#303030"/>
<path d="M206.401 72.7331C205.89 76.7001 204.903 79.5583 203.441 81.3078C201.99 83.0586 200.038 83.7758 197.586 83.4596C195.226 83.1554 193.559 81.9453 192.586 79.8295C191.613 77.7033 191.376 74.7134 191.872 70.8597C192.38 66.9236 193.348 64.084 194.778 62.3409C196.218 60.5991 198.153 59.8849 200.585 60.1985C202.965 60.5054 204.652 61.7233 205.645 63.8521C206.639 65.9706 206.891 68.9309 206.401 72.7331ZM193.542 71.075C193.09 74.5783 193.214 77.2289 193.915 79.0267C194.617 80.8141 195.9 81.8281 197.765 82.0686C199.713 82.3197 201.241 81.6369 202.35 80.0201C203.47 78.4046 204.248 75.9018 204.685 72.5118C205.116 69.1734 204.995 66.5808 204.321 64.7342C203.658 62.8888 202.353 61.8406 200.406 61.5895C198.458 61.3384 196.935 62.0219 195.836 63.6401C194.737 65.2582 193.972 67.7365 193.542 71.075Z" fill="#303030"/>
<path d="M232.707 76.125C232.195 80.092 231.209 82.9502 229.747 84.6997C228.296 86.4505 226.344 87.1677 223.892 86.8515C221.532 86.5473 219.865 85.3372 218.892 83.2214C217.919 81.0952 217.682 78.1053 218.178 74.2516C218.686 70.3155 219.654 67.4759 221.084 65.7328C222.524 63.991 224.459 63.2768 226.891 63.5904C229.271 63.8973 230.958 65.1151 231.951 67.244C232.945 69.3625 233.197 72.3228 232.707 76.125ZM219.848 74.4669C219.396 77.9702 219.52 80.6208 220.221 82.4186C220.923 84.206 222.206 85.22 224.071 85.4605C226.019 85.7116 227.547 85.0288 228.656 83.412C229.776 81.7965 230.554 79.2937 230.991 75.9037C231.422 72.5653 231.3 69.9727 230.627 68.1261C229.964 66.2807 228.659 65.2325 226.712 64.9814C224.764 64.7303 223.241 65.4138 222.142 67.032C221.043 68.6501 220.278 71.1284 219.848 74.4669Z" fill="#303030"/>
<path d="M250.79 78.4566C250.279 82.4237 249.292 85.2819 247.831 87.0313C246.379 88.7821 244.427 89.4994 241.975 89.1832C239.616 88.879 237.949 87.6689 236.975 85.5531C236.003 83.4269 235.765 80.437 236.262 76.5833C236.769 72.6472 237.738 69.8076 239.167 68.0645C240.607 66.3226 242.543 65.6085 244.974 65.9221C247.355 66.229 249.041 67.4468 250.034 69.5756C251.029 71.6942 251.281 74.6545 250.79 78.4566ZM237.931 76.7986C237.479 80.3019 237.604 82.9525 238.304 84.7502C239.006 86.5377 240.289 87.5517 242.154 87.7922C244.102 88.0433 245.63 87.3604 246.74 85.7436C247.859 84.1282 248.638 81.6254 249.075 78.2354C249.505 74.8969 249.384 72.3044 248.711 70.4577C248.048 68.6124 246.743 67.5642 244.795 67.3131C242.848 67.062 241.324 67.7455 240.225 69.3636C239.126 70.9818 238.362 73.4601 237.931 76.7986Z" fill="#303030"/>
<path d="M268.874 80.7883C268.362 84.7553 267.376 87.6136 265.914 89.363C264.463 91.1138 262.511 91.8311 260.059 91.5149C257.699 91.2106 256.032 90.0006 255.059 87.8847C254.086 85.7586 253.848 82.7687 254.345 78.915C254.853 74.9789 255.821 72.1393 257.251 70.3961C258.69 68.6543 260.626 67.9402 263.058 68.2537C265.438 68.5607 267.125 69.7785 268.118 71.9073C269.112 74.0258 269.364 76.9862 268.874 80.7883ZM256.015 79.1302C255.563 82.6336 255.687 85.2841 256.388 87.0819C257.089 88.8694 258.373 89.8834 260.238 90.1239C262.185 90.375 263.714 89.6921 264.823 88.0753C265.943 86.4598 266.721 83.9571 267.158 80.5671C267.589 77.2286 267.467 74.6361 266.794 72.7894C266.131 70.9441 264.826 69.8959 262.878 69.6448C260.931 69.3937 259.408 70.0772 258.309 71.6953C257.21 73.3135 256.445 75.7918 256.015 79.1302Z" fill="#303030"/>
<path d="M4.11648 91.6069L15.3401 4.56179L307.145 42.1872L295.922 129.232L4.11648 91.6069Z" stroke="black"/>
<circle cx="27.5671" cy="73.5131" r="4.98552" transform="rotate(7.3472 27.5671 73.5131)" stroke="black"/>
<path d="M24.0843 76.1455C-4.42119 93.1316 23.7779 116.517 52.5021 125.952C89.171 137.997 140.146 130.996 104.75 104.136" stroke="black"/>
</svg>
