<svg width="792" height="471" viewBox="0 0 792 471" fill="none" xmlns="http://www.w3.org/2000/svg">
<ellipse cx="283.486" cy="245.631" rx="186.518" ry="94.2764" stroke="black"/>
<ellipse cx="283.486" cy="245.63" rx="177.701" ry="88.2769" stroke="black"/>
<path d="M169.858 313.52C145.505 301.1 131.897 280.153 131.897 260.32C131.897 215.276 200.525 178.761 285.181 178.761C369.838 178.761 438.465 215.276 438.465 260.32C438.465 277.437 429.902 294.656 410.572 307.373" stroke="black"/>
<path d="M469.877 242.301C470.512 247.155 470.004 251.882 470.004 260.55C470.004 315.614 386.497 360.253 283.486 360.253C180.475 360.253 96.9679 315.614 96.9679 260.55C96.9679 253.337 96.7135 247.875 97.0844 242.185" stroke="black"/>
<path d="M470.003 261.145C470.639 265.999 470.003 280.709 470.003 289.377C470.003 344.441 386.497 389.079 283.486 389.079C180.475 389.079 96.9676 344.441 96.9676 289.377C96.9676 282.164 96.5967 265.734 96.9675 260.043" stroke="black"/>
<path d="M1.33284 390.714L126.168 443.554M1.33284 390.714L110.871 327.699M1.33284 390.714L7.09747 411.74L132.375 464.326M126.168 443.554L231.242 385.538M126.168 443.554L132.375 464.326M145.475 444.515L247.011 387.24M132.375 464.326L263.646 388.341M65.7656 377.828L138.338 408.349M105.504 354L177.058 385.538" stroke="black"/>
<path d="M470.511 251.764L790.5 56.5222M790.5 56.5222L674.5 13.5213L582.008 65.1351L394.548 169.666M790.5 56.5222L790.5 68.0222L469.886 264.296M509.399 199.848L434.452 169.666M542.295 180.963L467.348 150.781M571.798 162.989L496.851 132.807M600 147.581L525.053 117.399M626.068 130.399L554.621 100.217M659.636 114.991L584.689 84.8089M683.947 98.2042L612.5 68.0222M713.515 82.7957L638.568 52.6138" stroke="black"/>
<path d="M272.751 244.783C272.751 247.644 277.583 249.964 283.544 249.964C283.81 249.964 284.073 249.959 284.334 249.95L313.534 317.395C313.822 318.059 314.583 318.377 315.257 318.114C315.965 317.838 316.304 317.032 316.007 316.333L287.596 249.586C291.549 248.817 294.338 246.956 294.338 244.783C294.338 242.511 291.291 240.58 287.051 239.882L284.439 233.507C284.439 233.507 283.74 231.218 278.568 231.451C273.397 231.684 274.181 234.016 274.181 234.016L276.913 240.695C274.38 241.643 272.751 243.122 272.751 244.783Z" stroke="#303030"/>
<path d="M272.984 252.908C273.65 251.354 275.692 250.04 278.471 249.273M288.301 259.104C287.011 259.347 285.607 259.48 284.138 259.48C282.189 259.48 280.354 259.245 278.75 258.831M291.471 258.196C293.95 257.194 295.525 255.692 295.525 254.015C295.525 251.902 293.029 250.07 289.375 249.16" stroke="#303030"/>
<path d="M286.284 254.618H282.808L220.578 317.356L214.474 314.304L272.912 256.849M280.01 249.87L272.912 256.849M272.912 256.849L192.94 264.537L191.244 259.959L273.026 252.912L273.1 252.647" stroke="#303030"/>
<path d="M403.205 228.806C403.205 229.87 402.037 230.934 400.314 230.934C398.591 230.934 397.423 229.87 397.423 228.806C397.423 227.742 398.591 226.678 400.314 226.678C402.037 226.678 403.205 227.742 403.205 228.806Z" stroke="#303030"/>
<path d="M360.137 204.171C360.137 205.235 358.969 206.299 357.246 206.299C355.523 206.299 354.354 205.235 354.354 204.171C354.354 203.107 355.523 202.043 357.246 202.043C358.969 202.043 360.137 203.107 360.137 204.171Z" stroke="#303030"/>
<path d="M299.264 193.997C299.264 195.062 298.096 196.126 296.373 196.126C294.65 196.126 293.481 195.062 293.481 193.997C293.481 192.933 294.65 191.869 296.373 191.869C298.096 191.869 299.264 192.933 299.264 193.997Z" stroke="#303030"/>
<path d="M235.509 199.254C235.509 200.318 234.341 201.382 232.618 201.382C230.895 201.382 229.727 200.318 229.727 199.254C229.727 198.19 230.895 197.126 232.618 197.126C234.341 197.126 235.509 198.19 235.509 199.254Z" stroke="#303030"/>
<path d="M180.74 219.262C180.74 220.326 179.572 221.39 177.849 221.39C176.126 221.39 174.958 220.326 174.958 219.262C174.958 218.198 176.126 217.134 177.849 217.134C179.572 217.134 180.74 218.198 180.74 219.262Z" stroke="#303030"/>
<path d="M157.171 251.785C157.171 252.85 156.003 253.914 154.28 253.914C152.557 253.914 151.389 252.85 151.389 251.785C151.389 250.721 152.557 249.657 154.28 249.657C156.003 249.657 157.171 250.721 157.171 251.785Z" stroke="#303030"/>
<path d="M167.175 288.072C167.175 289.136 166.007 290.2 164.284 290.2C162.561 290.2 161.393 289.136 161.393 288.072C161.393 287.007 162.561 285.943 164.284 285.943C166.007 285.943 167.175 287.007 167.175 288.072Z" stroke="#303030"/>
<path d="M207.87 315.955C207.87 317.02 206.702 318.084 204.979 318.084C203.256 318.084 202.088 317.02 202.088 315.955C202.088 314.891 203.256 313.827 204.979 313.827C206.702 313.827 207.87 314.891 207.87 315.955Z" stroke="#303030"/>
<path d="M279.033 327.189C279.033 328.253 277.865 329.317 276.142 329.317C274.419 329.317 273.251 328.253 273.251 327.189C273.251 326.124 274.419 325.061 276.142 325.061C277.865 325.061 279.033 326.124 279.033 327.189Z" stroke="#303030"/>
<path d="M347.876 321.931C347.876 322.995 346.708 324.059 344.985 324.059C343.262 324.059 342.094 322.995 342.094 321.931C342.094 320.867 343.262 319.803 344.985 319.803C346.708 319.803 347.876 320.867 347.876 321.931Z" stroke="#303030"/>
<path d="M403.205 296.327C403.205 297.392 402.037 298.456 400.314 298.456C398.591 298.456 397.423 297.392 397.423 296.327C397.423 295.263 398.591 294.199 400.314 294.199C402.037 294.199 403.205 295.263 403.205 296.327Z" stroke="#303030"/>
<path d="M421.009 262.669C421.009 263.734 419.841 264.797 418.118 264.797C416.395 264.797 415.227 263.734 415.227 262.669C415.227 261.605 416.395 260.541 418.118 260.541C419.841 260.541 421.009 261.605 421.009 262.669Z" stroke="#303030"/>
</svg>
