<svg width="235" height="318" viewBox="0 0 235 318" fill="none" xmlns="http://www.w3.org/2000/svg">
<circle cx="111.896" cy="165.267" r="87.18" stroke="#FAFAFA"/>
<circle cx="111.896" cy="165.266" r="94.5425" stroke="#FAFAFA"/>
<path d="M221.331 152.577H232.099C232.284 153.182 232.456 153.789 232.615 154.399M221.331 178.695H232.099C232.284 178.091 232.456 177.483 232.615 176.873M221.639 156.222H233.049M233.049 156.222C233.44 158.029 233.717 159.855 233.88 161.688M233.049 156.222C232.918 155.612 232.773 155.004 232.615 154.399M221.639 175.051H233.049M233.049 175.051C233.44 173.243 233.717 171.418 233.88 169.584M233.049 175.051C232.918 175.661 232.773 176.268 232.615 176.873M221.946 169.584H233.88M233.88 169.584C234.114 166.957 234.114 164.315 233.88 161.688M221.946 161.688H233.88M221.639 154.399H232.615M221.639 176.873L232.615 176.873" stroke="#FAFAFA"/>
<circle cx="111.896" cy="165.266" r="103.913" stroke="#FAFAFA"/>
<path d="M32.9176 59.8495L37.2682 38.0968H51.9931M32.9176 59.8495C-9.63921 123.685 -9.63921 206.849 32.9176 270.685M32.9176 59.8495C58.6861 51.1484 170.573 54.2718 188.198 59.8495M32.9176 270.685L37.2682 292.103H51.9931M32.9176 270.685C60.0249 273.25 131.641 277.378 188.198 270.685M51.9931 292.103L51.9931 279.72H167.784V292.103M51.9931 292.103L51.9931 310.555C85.8576 319.128 133.973 319.337 167.784 310.555L167.784 292.103M167.784 292.103L182.844 292.103L188.198 270.685M188.198 270.685C233.566 207.729 233.566 122.805 188.198 59.8495M188.198 59.8495L182.844 38.0968H167.784M167.784 38.0968V51.1484L51.9931 49.1405V38.0968M167.784 38.0968L167.784 7.50851C133.92 -1.0648 85.8041 -1.27358 51.9931 7.50851L51.9931 38.0968" stroke="#FAFAFA"/>
<path d="M82.4462 115.068L70.0639 93.9847M110.892 108.04V83.6104M139.338 115.068L151.385 93.65M160.756 133.474L180.501 121.427M162.094 192.374L181.839 204.087M140.342 215.465L152.055 235.879M110.892 224.166V247.257M81.7769 215.13L70.0639 235.879M60.6935 193.378L40.6141 204.087M30.2397 164.263H54.6697M41.6181 124.438L60.6935 134.813M168.788 162.589H192.883" stroke="#FAFAFA"/>
<path d="M114.577 163.966C114.577 165.06 114.052 166.032 113.239 166.643L134.987 231.529L134.318 231.863L111.231 167.312C109.383 167.312 107.884 165.814 107.884 163.966C107.884 162.871 108.41 161.899 109.223 161.288L104.868 148.869L106.876 148.199L111.231 160.619C113.079 160.619 114.577 162.117 114.577 163.966Z" stroke="#FAFAFA"/>
<path d="M113.765 174.637L113.904 178.319L106.876 177.984L107.88 168.938C106.266 167.857 105.203 166.017 105.203 163.928C105.203 161.699 106.415 159.752 108.215 158.71M114.239 169.146C116.039 168.105 117.251 166.158 117.251 163.928C117.251 161.833 116.181 159.988 114.558 158.909L117.251 117.746L114.239 117.411L109.773 156.231" stroke="#FAFAFA"/>
</svg>
