<svg width="350" height="781" viewBox="0 0 350 781" fill="none" xmlns="http://www.w3.org/2000/svg">
<circle cx="166.591" cy="392.947" r="130.425" stroke="black"/>
<circle cx="166.592" cy="392.947" r="141.418" stroke="black"/>
<path d="M330 374H346.079C346.356 374.903 346.613 375.81 346.85 376.721M330 413H346.079C346.356 412.097 346.613 411.19 346.85 410.279M330.459 379.442H347.498M347.498 379.442C348.081 382.141 348.495 384.867 348.738 387.605M347.498 379.442C347.301 378.532 347.085 377.624 346.85 376.721M330.459 407.558H347.498M347.498 407.558C348.081 404.859 348.495 402.133 348.738 399.395M347.498 407.558C347.301 408.468 347.085 409.376 346.85 410.279M330.919 399.395H348.738M348.738 399.395C349.087 395.473 349.087 391.527 348.738 387.605M330.919 387.605H348.738M330.459 376.721H346.85M330.459 410.279L346.85 410.279" stroke="black"/>
<circle cx="166.592" cy="392.947" r="155.41" stroke="black"/>
<path d="M48.6597 235.537L55.156 203.056H77.1433M48.6597 235.537C-14.8866 330.857 -14.8866 455.038 48.6597 550.358M48.6597 235.537C87.1374 222.545 254.208 227.209 280.526 235.537M48.6597 550.358L55.156 582.339H77.1433M48.6597 550.358C89.1364 554.189 196.075 560.352 280.526 550.358M77.1433 582.339V563.85H250.044V582.339M77.1433 582.339L83.14 770.281C133.707 783.083 188.563 783.395 239.05 770.281L250.044 582.339M250.044 582.339H272.531L280.526 550.358M280.526 550.358C348.27 456.351 348.27 329.544 280.526 235.537M280.526 235.537L272.531 203.056H250.044M250.044 203.056V222.545L77.1433 219.547V203.056M250.044 203.056L244.047 10.7185C193.48 -2.08321 138.624 -2.39496 88.1368 10.7185L77.1433 203.056" stroke="black"/>
<path d="M122.617 317.99L104.128 286.508M165.093 307.496V271.017M207.568 317.99L225.558 286.008M239.55 345.474L269.033 327.485M241.549 433.423L271.032 450.913M209.067 467.904L226.557 498.386M165.093 480.896V515.376M121.618 467.404L104.128 498.386M90.1359 434.923L60.1532 450.913M44.6621 391.448H81.1411M61.6523 331.982L90.1359 347.473M251.543 388.949H287.522" stroke="black"/>
<path d="M170.596 391.004C170.596 392.638 169.811 394.09 168.597 395.001L201.072 491.89L200.072 492.389L165.598 396.001C162.839 396.001 160.601 393.764 160.601 391.004C160.601 389.369 161.386 387.917 162.6 387.006L156.098 368.461L159.096 367.461L165.598 386.007C168.358 386.007 170.596 388.244 170.596 391.004Z" stroke="black"/>
<path d="M169.382 406.939L169.59 412.436L159.096 411.936L160.595 398.428C158.185 396.815 156.598 394.067 156.598 390.948C156.598 387.619 158.407 384.712 161.095 383.157M170.09 398.74C172.778 397.184 174.587 394.278 174.587 390.948C174.587 387.82 172.99 385.064 170.566 383.453L174.587 321.988L170.09 321.488L163.422 379.455" stroke="black"/>
</svg>
