<svg width="24" height="24" viewBox="0 0 24 24" fill="none" xmlns="http://www.w3.org/2000/svg">
<path d="M10.2499 2H2.75001C2.33578 2 2 2.33578 2 2.75001V10.25C2 10.6642 2.33578 11 2.75001 11H10.25C10.6642 11 11 10.6642 11 10.25V2.75001C11 2.33578 10.6642 2 10.2499 2Z" stroke="black" stroke-linecap="round" stroke-linejoin="round"/>
<path d="M21.25 2H13.75C13.3358 2 13 2.33578 13 2.75001V10.25C13 10.6642 13.3358 11 13.75 11H21.25C21.6642 11 22 10.6642 22 10.25V2.75001C22 2.33578 21.6642 2 21.25 2Z" stroke="black" stroke-linecap="round" stroke-linejoin="round"/>
<path d="M10.2499 13H2.75001C2.33578 13 2 13.3358 2 13.75V21.25C2 21.6642 2.33578 22 2.75001 22H10.25C10.6642 22 11 21.6642 11 21.25V13.75C11 13.3358 10.6642 13 10.2499 13Z" stroke="black" stroke-linecap="round" stroke-linejoin="round"/>
<path d="M21.25 13H13.75C13.3358 13 13 13.3358 13 13.75V21.25C13 21.6642 13.3358 22 13.75 22H21.25C21.6642 22 22 21.6642 22 21.25V13.75C22 13.3358 21.6642 13 21.25 13Z" stroke="black" stroke-linecap="round" stroke-linejoin="round"/>
</svg>
