<svg width="24" height="24" viewBox="0 0 24 24" fill="none" xmlns="http://www.w3.org/2000/svg">
<path fill-rule="evenodd" clip-rule="evenodd" d="M5 10C5 15.25 12 21 12 21C12 21 19 15.25 19 10C19 6.134 15.866 3 12 3C8.134 3 5 6.134 5 10ZM9.5 10C9.5 8.61914 10.6191 7.5 12 7.5C13.3809 7.5 14.5 8.61914 14.5 10C14.5 11.3809 13.3809 12.5 12 12.5C10.6191 12.5 9.5 11.3809 9.5 10ZM12 6.5C10.0669 6.5 8.5 8.06686 8.5 10C8.5 11.9331 10.0669 13.5 12 13.5C13.9331 13.5 15.5 11.9331 15.5 10C15.5 8.06686 13.9331 6.5 12 6.5Z" fill="black"/>
</svg>
