<svg width="14" height="10" viewBox="0 0 14 10" fill="none" xmlns="http://www.w3.org/2000/svg">
<path d="M0 9.55102C0.380952 8.10884 0.897959 6.517 1.55102 4.77551C2.20408 3.03401 2.85714 1.44218 3.5102 0H6.16326C5.91837 1.03401 5.65986 2.14966 5.38775 3.34694C5.11565 4.51701 4.87075 5.68707 4.65306 6.85714C4.43537 8 4.2585 9.04762 4.12245 10H0.244898L0 9.55102Z" fill="black"/>
<path d="M7.13488 9.55102C7.51584 8.10884 8.03284 6.517 8.68591 4.77551C9.33897 3.03401 9.99203 1.44218 10.6451 0H13.2982C13.0533 1.03401 12.7947 2.14966 12.5226 3.34694C12.2505 4.51701 12.0056 5.68707 11.7879 6.85714C11.5703 8 11.3934 9.04762 11.2573 10H7.37978L7.13488 9.55102Z" fill="black"/>
</svg>
